<svg width="43" height="39" viewBox="0 0 43 39" fill="none" xmlns="http://www.w3.org/2000/svg">
<g opacity="0.7">
<path d="M21.5001 0C9.64515 0 0 8.23284 0 18.3525C0 23.5509 2.49403 28.3716 6.90987 31.8371L5.00474 35.7301C4.81105 36.1259 4.73919 36.5666 4.7976 37.0003C4.856 37.434 5.04234 37.8426 5.33454 38.178C5.62675 38.5134 6.01272 38.7616 6.44693 38.8934C6.88114 39.0252 7.34554 39.035 7.78539 38.9217L17.5798 36.3982C18.8758 36.6023 20.1868 36.7049 21.5001 36.7051C33.355 36.7051 43 28.4722 43 18.3525C43 8.23284 33.355 0 21.5001 0Z" fill="#009B97"/>
<path d="M22.1975 28.9039C21.815 29.032 21.185 29.032 20.8025 28.9039C17.54 27.8472 10.25 23.4388 10.25 15.9669C10.25 12.6685 13.0512 10 16.505 10C18.5525 10 20.3638 11.6437 21.5 13.0954C22.6362 11.6437 24.4588 10 26.495 10C29.9488 10 32.75 12.6685 32.75 15.9669C32.75 23.4388 25.46 27.8472 22.1975 28.9039Z" fill="white"/>
</g>
</svg>
