<svg width="29" height="37" viewBox="0 0 29 37" fill="none" xmlns="http://www.w3.org/2000/svg">
<path opacity="0.7" d="M14.5813 0C6.48065 0 0 6.3509 0 14.2896C0 21.593 12.2041 34.9359 13.5 36.5237C14.1482 37.1588 14.8518 37.1588 15.5 36.5237C16.7959 34.9359 29 21.593 29 14.2896C29 6.50973 22.5194 0.158771 14.5813 0Z" fill="#009B97"/>
<path opacity="0.7" d="M14.5 18C17.5376 18 20 15.5376 20 12.5C20 9.46245 17.5376 7 14.5 7C11.4624 7 9 9.46245 9 12.5C9 15.5376 11.4624 18 14.5 18Z" fill="white"/>
</svg>
