<svg width="37" height="37" viewBox="0 0 37 37" fill="none" xmlns="http://www.w3.org/2000/svg">
<path opacity="0.7" d="M37 14.3334C37 13.2288 36.1046 12.3334 35 12.3334H24.6667V2C24.6667 0.895432 23.7712 0 22.6667 0H14.3335C13.2289 0 12.3335 0.895431 12.3335 2V12.3334H2C0.895429 12.3334 0 13.2288 0 14.3334V22.6668C0 23.7713 0.895431 24.6668 2 24.6668H12.3335V35C12.3335 36.1046 13.2289 37 14.3335 37H22.6667C23.7712 37 24.6667 36.1046 24.6667 35V24.6668H35C36.1046 24.6668 37 23.7713 37 22.6668V14.3334Z" fill="#009B97"/>
</svg>
