<svg width="44" height="47" viewBox="0 0 44 47" fill="none" xmlns="http://www.w3.org/2000/svg">
<rect width="44" height="47" fill="white"/>
<path d="M32.5297 39.5711L27.2372 11.0547C26.7857 8.59986 25.4689 6.49212 23.6503 4.97951C22.02 3.62809 19.9506 2.77259 17.7308 2.61141C17.4799 2.58662 17.2291 2.57422 16.9657 2.57422C11.2092 2.57422 6.53125 7.19883 6.53125 12.9021V45.634" stroke="#009B97" stroke-width="2" stroke-miterlimit="10" stroke-linecap="round" stroke-linejoin="round"/>
<path d="M12.8984 14.4777V11.3285C12.8984 8.93557 13.7262 6.72865 15.1057 4.98047" stroke="#009B97" stroke-width="2" stroke-miterlimit="10" stroke-linecap="round" stroke-linejoin="round"/>
<path d="M12.8984 28.6103V20.3281" stroke="#009B97" stroke-width="2" stroke-miterlimit="10" stroke-linecap="round" stroke-linejoin="round"/>
<path d="M12.8984 40.8614V34.3398" stroke="#009B97" stroke-width="2" stroke-miterlimit="10" stroke-linecap="round" stroke-linejoin="round"/>
<path d="M22.0078 1.08679C22.4468 1.0372 22.8983 1 23.3497 1C25.8706 1 28.2158 1.89269 30.0343 3.3929C31.8654 4.89311 33.1697 7.01324 33.6212 9.46813L38.5124 35.7652" stroke="#009B97" stroke-width="2" stroke-miterlimit="10" stroke-linecap="round" stroke-linejoin="round"/>
<path d="M28.3047 17.4035L33.6473 11.5391" stroke="#009B97" stroke-width="2" stroke-miterlimit="10" stroke-linecap="round" stroke-linejoin="round"/>
<path d="M31.0352 31.5363L36.3778 25.6719" stroke="#009B97" stroke-width="2" stroke-miterlimit="10" stroke-linecap="round" stroke-linejoin="round"/>
<path d="M6.51562 17.4023H28.3001" stroke="#009B97" stroke-width="2" stroke-miterlimit="10" stroke-linecap="round" stroke-linejoin="round"/>
<path d="M6.51562 31.5391H31.0342" stroke="#009B97" stroke-width="2" stroke-miterlimit="10" stroke-linecap="round" stroke-linejoin="round"/>
<path d="M5 45.6328H8.04757" stroke="#009B97" stroke-width="2" stroke-miterlimit="10" stroke-linecap="round" stroke-linejoin="round"/>
<path d="M11.3711 40.8594H14.4187" stroke="#009B97" stroke-width="2" stroke-miterlimit="10" stroke-linecap="round" stroke-linejoin="round"/>
<path d="M38.8854 40.9835C40.3538 40.9835 41.5441 39.8067 41.5441 38.355C41.5441 36.9034 40.3538 35.7266 38.8854 35.7266C37.4169 35.7266 36.2266 36.9034 36.2266 38.355C36.2266 39.8067 37.4169 40.9835 38.8854 40.9835Z" stroke="#009B97" stroke-width="2" stroke-miterlimit="10" stroke-linecap="round" stroke-linejoin="round"/>
<path d="M33.1041 45.6358C34.5725 45.6358 35.7629 44.459 35.7629 43.0074C35.7629 41.5557 34.5725 40.3789 33.1041 40.3789C31.6357 40.3789 30.4453 41.5557 30.4453 43.0074C30.4453 44.459 31.6357 45.6358 33.1041 45.6358Z" stroke="#009B97" stroke-width="2" stroke-miterlimit="10" stroke-linecap="round" stroke-linejoin="round"/>
</svg>
