<svg width="21" height="20" viewBox="0 0 21 20" fill="none" xmlns="http://www.w3.org/2000/svg">
<path d="M3.63519 2.47137L18.5573 3.87033C19.4725 3.95613 20.1455 4.76678 20.0614 5.68218L19.8569 7.90831C19.788 8.65885 19.2239 9.26972 18.4812 9.39814L6.18959 11.5236M0.980469 0.745239L2.28749 1.00392C2.93271 1.13162 3.44249 1.62685 3.58881 2.2681L6.36745 14.4453C6.54044 15.2034 7.21472 15.7412 7.99235 15.7412H19.9227" stroke="white" stroke-width="1.44444" stroke-linecap="round"/>
<mask id="path-2-inside-1_601_4565" fill="white">
<ellipse cx="6.36718" cy="18.7009" rx="1.34668" ry="1.28255"/>
</mask>
<ellipse cx="6.36718" cy="18.7009" rx="1.34668" ry="1.28255" fill="white"/>
<path d="M6.26942 18.7009C6.26942 18.6328 6.30081 18.5832 6.32326 18.5618C6.33397 18.5516 6.34386 18.546 6.35166 18.5428C6.35572 18.5412 6.35934 18.5402 6.36228 18.5396C6.36374 18.5393 6.36493 18.5392 6.36582 18.5391C6.36625 18.539 6.36659 18.539 6.36683 18.539C6.36707 18.539 6.36719 18.539 6.36718 18.539V21.4279C7.84146 21.4279 9.1583 20.2726 9.1583 18.7009H6.26942ZM6.36718 18.539C6.36718 18.539 6.3673 18.539 6.36754 18.539C6.36777 18.539 6.36811 18.539 6.36855 18.5391C6.36944 18.5392 6.37063 18.5393 6.37208 18.5396C6.37503 18.5402 6.37864 18.5412 6.38271 18.5428C6.39051 18.546 6.4004 18.5516 6.41111 18.5618C6.43356 18.5832 6.46495 18.6328 6.46495 18.7009H3.57606C3.57606 20.2726 4.89291 21.4279 6.36718 21.4279V18.539ZM6.46495 18.7009C6.46495 18.769 6.43356 18.8186 6.41111 18.84C6.4004 18.8502 6.39051 18.8558 6.38271 18.8589C6.37864 18.8606 6.37503 18.8616 6.37208 18.8622C6.37063 18.8624 6.36944 18.8626 6.36855 18.8627C6.36811 18.8627 6.36777 18.8628 6.36754 18.8628C6.3673 18.8628 6.36718 18.8628 6.36718 18.8628V15.9739C4.89291 15.9739 3.57606 17.1292 3.57606 18.7009H6.46495ZM6.36718 18.8628C6.36719 18.8628 6.36707 18.8628 6.36683 18.8628C6.36659 18.8628 6.36625 18.8627 6.36582 18.8627C6.36493 18.8626 6.36374 18.8624 6.36228 18.8622C6.35934 18.8616 6.35572 18.8606 6.35166 18.8589C6.34386 18.8558 6.33397 18.8502 6.32326 18.84C6.30081 18.8186 6.26942 18.769 6.26942 18.7009H9.1583C9.1583 17.1292 7.84146 15.9739 6.36718 15.9739V18.8628Z" fill="white" mask="url(#path-2-inside-1_601_4565)"/>
<mask id="path-4-inside-2_601_4565" fill="white">
<ellipse cx="16.3115" cy="18.7009" rx="1.34668" ry="1.28255"/>
</mask>
<ellipse cx="16.3115" cy="18.7009" rx="1.34668" ry="1.28255" fill="white"/>
<path d="M16.2138 18.7009C16.2138 18.6328 16.2451 18.5832 16.2676 18.5618C16.2783 18.5516 16.2882 18.546 16.296 18.5428C16.3001 18.5412 16.3037 18.5402 16.3066 18.5396C16.3081 18.5393 16.3093 18.5392 16.3102 18.5391C16.3106 18.539 16.3109 18.539 16.3112 18.539C16.3114 18.539 16.3115 18.539 16.3115 18.539V21.4279C17.7858 21.4279 19.1026 20.2726 19.1026 18.7009H16.2138ZM16.3115 18.539C16.3115 18.539 16.3116 18.539 16.3119 18.539C16.3121 18.539 16.3125 18.539 16.3129 18.5391C16.3138 18.5392 16.315 18.5393 16.3164 18.5396C16.3194 18.5402 16.323 18.5412 16.327 18.5428C16.3348 18.546 16.3447 18.5516 16.3554 18.5618C16.3779 18.5832 16.4093 18.6328 16.4093 18.7009H13.5204C13.5204 20.2726 14.8372 21.4279 16.3115 21.4279V18.539ZM16.4093 18.7009C16.4093 18.769 16.3779 18.8186 16.3554 18.84C16.3447 18.8502 16.3348 18.8558 16.327 18.8589C16.323 18.8606 16.3194 18.8616 16.3164 18.8622C16.315 18.8624 16.3138 18.8626 16.3129 18.8627C16.3125 18.8627 16.3121 18.8628 16.3119 18.8628C16.3116 18.8628 16.3115 18.8628 16.3115 18.8628V15.9739C14.8372 15.9739 13.5204 17.1292 13.5204 18.7009H16.4093ZM16.3115 18.8628C16.3115 18.8628 16.3114 18.8628 16.3112 18.8628C16.3109 18.8628 16.3106 18.8627 16.3102 18.8627C16.3093 18.8626 16.3081 18.8624 16.3066 18.8622C16.3037 18.8616 16.3001 18.8606 16.296 18.8589C16.2882 18.8558 16.2783 18.8502 16.2676 18.84C16.2451 18.8186 16.2138 18.769 16.2138 18.7009H19.1026C19.1026 17.1292 17.7858 15.9739 16.3115 15.9739V18.8628Z" fill="white" mask="url(#path-4-inside-2_601_4565)"/>
</svg>
