<svg width="34" height="34" viewBox="0 0 34 34" fill="none" xmlns="http://www.w3.org/2000/svg">
<circle cx="17" cy="17" r="17" fill="#009B97"/>
<path d="M14.172 21.162L10.702 17.692C10.515 17.505 10.2614 17.4 9.99702 17.4C9.73259 17.4 9.479 17.505 9.29202 17.692C9.10504 17.879 9 18.1326 9 18.397C9 18.528 9.02579 18.6576 9.07589 18.7786C9.126 18.8995 9.19944 19.0094 9.29202 19.102L13.472 23.282C13.862 23.672 14.492 23.672 14.882 23.282L25.462 12.702C25.649 12.515 25.754 12.2614 25.754 11.997C25.754 11.7326 25.649 11.479 25.462 11.292C25.275 11.105 25.0214 11 24.757 11C24.4926 11 24.239 11.105 24.052 11.292L14.172 21.162Z" fill="white"/>
</svg>
