<svg width="32" height="32" viewBox="0 0 32 32" fill="none" xmlns="http://www.w3.org/2000/svg">
<path fill-rule="evenodd" clip-rule="evenodd" d="M18.5247 7.21741C18.5247 8.50459 17.2835 9.51595 15.7205 9.51595C14.1575 9.51595 12.9163 8.50458 12.9163 7.26337V7.21741C12.9163 7.21741 12.9163 7.21741 12.9163 7.17144C12.9163 5.93023 14.1575 4.91888 15.7205 4.91888C17.2375 4.87291 18.5247 5.93023 18.5247 7.21741C18.5247 7.17144 18.5247 7.17144 18.5247 7.21741ZM22.708 8.87235C20.3176 10.3894 17.0996 11.3548 13.6058 11.3548C10.204 11.3548 7.07798 10.4813 4.6875 9.01027H9.00875V1.1033C9.00875 0.505675 9.51443 0 10.112 0H21.5588C22.1564 0 22.6621 0.505675 22.6621 1.1033V8.87235H22.708Z" fill="#C22B6B"/>
<path fill-rule="evenodd" clip-rule="evenodd" d="M22.7115 26.2048C19.8614 24.274 17.9766 21.194 17.9766 17.7002C17.9766 14.1145 19.9533 10.8965 23.0333 9.01172H30.6185C31.2161 9.01172 31.7218 9.51739 31.7218 10.115V21.5617C31.7218 22.1593 31.2161 22.665 30.6185 22.665H22.7115V26.2048Z" fill="#C22B6B"/>
<path fill-rule="evenodd" clip-rule="evenodd" d="M4.8729 11.4961C11.4467 11.4961 16.7793 15.7254 16.7793 20.8741C16.7793 24.9195 13.5614 28.3674 9.01027 29.7005V22.713H1.1033C0.505679 22.713 0 22.2073 0 21.6097V12.3236C1.47106 11.7719 3.12601 11.4961 4.8729 11.4961Z" fill="#C22B6B"/>
<path fill-rule="evenodd" clip-rule="evenodd" d="M18.7565 25.7461C20.2276 25.7461 21.6067 26.3437 22.756 27.3551V30.4811C22.756 31.2626 22.3422 31.7683 21.4688 31.7683H12.1367C13.1021 28.2285 15.6765 25.7461 18.7565 25.7461Z" fill="#C22B6B"/>
</svg>
