<svg width="17" height="16" viewBox="0 0 17 16" fill="none" xmlns="http://www.w3.org/2000/svg">
<path d="M16.0208 5.87578V3.03828C16.0208 2.15703 15.5675 1.80078 14.4413 1.80078H11.5796C10.4533 1.80078 10 2.15703 10 3.03828V5.86953C10 6.75703 10.4533 7.10703 11.5796 7.10703H14.4413C15.5675 7.11328 16.0208 6.75703 16.0208 5.87578Z" fill="white" stroke="white" stroke-width="1.2" stroke-linecap="round" stroke-linejoin="round"/>
<path d="M7.43685 5.825V2.9875C7.43685 2.10625 6.98352 1.75 5.85727 1.75H2.9956C1.86935 1.75 1.41602 2.10625 1.41602 2.9875V5.81875C1.41602 6.70625 1.86935 7.05625 2.9956 7.05625H5.85727C6.98352 7.0625 7.43685 6.70625 7.43685 5.825Z" fill="white" stroke="white" stroke-width="1.2" stroke-linecap="round" stroke-linejoin="round"/>
<path d="M16.0052 13.4695V10.9445C16.0052 9.95078 15.5519 9.55078 14.4256 9.55078H11.564C10.4377 9.55078 9.98438 9.95078 9.98438 10.9445V13.4695C9.98438 14.4633 10.4377 14.8633 11.564 14.8633H14.4256C15.5519 14.8633 16.0052 14.4633 16.0052 13.4695Z" fill="white" stroke="white" stroke-width="1.2" stroke-linecap="round" stroke-linejoin="round"/>
<path d="M7.42122 13.4188V10.8937C7.42122 9.9 6.96789 9.5 5.84164 9.5H2.97997C1.85372 9.5 1.40039 9.9 1.40039 10.8937V13.4188C1.40039 14.4125 1.85372 14.8125 2.97997 14.8125H5.84164C6.96789 14.8125 7.42122 14.4125 7.42122 13.4188Z" fill="white" stroke="white" stroke-width="1.2" stroke-linecap="round" stroke-linejoin="round"/>
</svg>
